<svg width="88" height="77" viewBox="0 0 88 77" fill="none" xmlns="http://www.w3.org/2000/svg">
<rect width="45" height="45" transform="translate(43 32)" fill="#207899"/>
<path d="M63.625 60.7963H63.5294C63.0575 60.7963 62.6049 60.6088 62.2712 60.2751C61.9375 59.9414 61.75 59.4888 61.75 59.0169C61.75 58.5196 61.5525 58.0427 61.2008 57.6911C60.8492 57.3394 60.3723 57.1419 59.875 57.1419C59.3777 57.1419 58.9008 57.3394 58.5492 57.6911C58.1975 58.0427 58 58.5196 58 59.0169C58 60.4834 58.5826 61.8898 59.6195 62.9268C60.6565 63.9637 62.0629 64.5463 63.5294 64.5463H63.625V66.4213C63.625 66.9185 63.8225 67.3955 64.1742 67.7471C64.5258 68.0987 65.0027 68.2963 65.5 68.2963C65.9973 68.2963 66.4742 68.0987 66.8258 67.7471C67.1775 67.3955 67.375 66.9185 67.375 66.4213V64.5463C68.8668 64.5463 70.2976 63.9536 71.3525 62.8987C72.4074 61.8439 73 60.4131 73 58.9213C73 57.4294 72.4074 55.9987 71.3525 54.9438C70.2976 53.8889 68.8668 53.2963 67.375 53.2963V49.5463H67.4162C68.4288 49.5463 69.25 50.3675 69.25 51.38C69.25 51.8773 69.4475 52.3542 69.7992 52.7058C70.1508 53.0575 70.6277 53.255 71.125 53.255C71.6223 53.255 72.0992 53.0575 72.4508 52.7058C72.8025 52.3542 73 51.8773 73 51.38C73 49.8991 72.4117 48.4789 71.3646 47.4317C70.3174 46.3846 68.8972 45.7963 67.4162 45.7963H67.375V43.9213C67.375 43.424 67.1775 42.9471 66.8258 42.5954C66.4742 42.2438 65.9973 42.0463 65.5 42.0463C65.0027 42.0463 64.5258 42.2438 64.1742 42.5954C63.8225 42.9471 63.625 43.424 63.625 43.9213V45.7963C62.1332 45.7963 60.7024 46.3889 59.6475 47.4438C58.5926 48.4987 58 49.9294 58 51.4213C58 52.9131 58.5926 54.3439 59.6475 55.3987C60.7024 56.4536 62.1332 57.0463 63.625 57.0463V60.7963ZM67.375 60.7963V57.0463C67.8723 57.0463 68.3492 57.2438 68.7008 57.5954C69.0525 57.9471 69.25 58.424 69.25 58.9213C69.25 59.4185 69.0525 59.8955 68.7008 60.2471C68.3492 60.5987 67.8723 60.7963 67.375 60.7963ZM63.625 49.5463V53.2963C63.1277 53.2963 62.6508 53.0987 62.2992 52.7471C61.9475 52.3955 61.75 51.9185 61.75 51.4213C61.75 50.924 61.9475 50.4471 62.2992 50.0954C62.6508 49.7438 63.1277 49.5463 63.625 49.5463ZM65.5 73.9213C55.1444 73.9213 46.75 65.5269 46.75 55.1713C46.75 44.8156 55.1444 36.4213 65.5 36.4213C75.8556 36.4213 84.25 44.8156 84.25 55.1713C84.25 65.5269 75.8556 73.9213 65.5 73.9213Z" fill="white"/>
<path fill-rule="evenodd" clip-rule="evenodd" d="M2.47579 32.5031L32.5032 2.4758C34.1538 0.825403 36.3277 0 38.5 0C40.6725 0 42.8462 0.825609 44.4966 2.47559L74.5242 32.5033C76.1746 34.1537 77 36.3274 77 38.5001C77 40.6726 76.1744 42.8465 74.5242 44.4969L44.4966 74.5242C42.8466 76.1746 40.6727 77 38.5 77C36.3273 77 34.1536 76.175 32.503 74.5244L2.47579 44.4969C0.825401 42.8463 0 40.6722 0 38.4997C0 36.3274 0.825607 34.1537 2.47579 32.5031Z" fill="#207899"/>
<path fill-rule="evenodd" clip-rule="evenodd" d="M28.164 13.1645L32.1007 18.909L38.4833 18.9104L44.8025 18.909L49.179 12.5451L42.0537 5.41978C40.0991 3.46503 36.9008 3.46503 34.9461 5.41978L27.7175 12.6484L28.1031 13.2061L28.164 13.1645ZM50.0811 13.447L65.8969 29.2631L65.8179 37.2837L55.7056 28.2004L54.2731 18.8843L50.4439 23.4741L45.957 19.4438L50.0811 13.447ZM67.1384 30.5044L67.062 38.2517L71.9327 41.6618C73.5265 39.6929 73.409 36.775 71.58 34.946L67.1384 30.5044ZM71.0559 42.5778L70.1434 43.4904L67.0318 41.3118L67.047 39.7713L71.0559 42.5778ZM69.2435 44.3901L66.441 42.4279L65.8002 43.0258L68.628 45.0058L69.2435 44.3901ZM67.7284 45.9055L66.911 46.7229L64.0127 44.6938L64.8634 43.8999L67.7284 45.9055ZM66.0111 47.6228L63.0758 45.5678L62.1487 46.4327L65.1202 48.5134L66.0111 47.6228ZM64.2208 49.4131L63.4441 50.1897L60.4039 48.0611L61.2124 47.3067L64.2208 49.4131ZM62.5442 51.0896L59.4671 48.9351L58.4938 49.8434L61.6094 52.0247L62.5442 51.0896ZM60.7095 52.9246L59.9077 53.7264L56.7224 51.4963L57.5571 50.7176L60.7095 52.9246ZM59.0078 54.6259L55.7859 52.3698L55.0061 53.0973L58.259 55.3747L59.0078 54.6259ZM57.3591 56.2748L56.5623 57.0716L53.2399 54.7454L54.0692 53.9715L57.3591 56.2748ZM55.6626 57.9713L52.3032 55.6194L51.5329 56.3382L54.9226 58.7113L55.6626 57.9713ZM54.0225 59.6114L53.2319 60.402L49.7728 57.9801L50.596 57.2124L54.0225 59.6114ZM52.3322 61.3017L49.3586 59.2198L49.3323 60.6656L51.471 62.1629L52.3322 61.3017ZM50.5711 63.0628L49.3049 62.1761L49.2804 63.5269L49.2318 63.5763L49.7175 63.9162L50.5711 63.0628ZM48.8174 64.8163L48.34 64.4821L47.5288 65.3061L47.9988 65.6353L48.8174 64.8163ZM47.0991 66.5348L46.6371 66.2115L45.9457 66.9139L46.4013 67.2328L47.0991 66.5348ZM45.5012 68.1325L45.0538 67.8195L44.2208 68.6655L44.6605 68.9734L45.5012 68.1325ZM43.7607 69.8731L43.539 69.7179L43.7176 69.9161L43.7607 69.8731ZM44.4809 70.7633L44.5097 70.7952L44.3282 70.9162L42.6085 72.6357C41.6789 73.5653 40.5041 74.1122 39.2859 74.2761L39.212 74.3254L39.1247 74.2954C38.9173 74.3174 38.7088 74.3285 38.5004 74.3285C37.0354 74.3285 35.5713 73.7834 34.4499 72.6934L34.3649 72.6641L34.3263 72.5703L4.36405 42.608C3.23594 41.4799 2.67127 39.9898 2.67127 38.4995C2.67127 37.0092 3.23594 35.5197 4.36426 34.391L34.3915 4.36411C35.52 3.23579 37.0101 2.67111 38.5 2.67111C39.9903 2.67111 41.4797 3.23558 42.6085 4.36411L72.6359 34.3916C73.7642 35.52 74.3289 37.0098 74.3289 38.5001C74.3289 39.9904 73.7644 41.4803 72.6359 42.6086L44.4809 70.7633ZM33.2424 69.8766L33.3045 69.8008L33.2235 69.8576L33.2424 69.8766ZM32.3238 68.9577L32.7864 68.634L31.9534 67.7881L31.4831 68.1173L32.3238 68.9577ZM30.5832 67.2172L31.0615 66.8824L30.3701 66.1801L29.8854 66.5192L30.5832 67.2172ZM28.9855 65.6195L29.4786 65.2744L28.6674 64.4504L28.1669 64.8007L28.9855 65.6195ZM27.267 63.9008L27.7755 63.545L27.758 63.5271L27.7325 62.1236L26.4132 63.0472L27.267 63.9008ZM25.5133 62.1473L27.7049 60.613L27.6788 59.1671L24.6521 61.2861L25.5133 62.1473ZM23.7524 60.3862L27.229 57.9522L26.4015 57.1875L22.9618 59.5956L23.7524 60.3862ZM22.0619 58.6959L25.4596 56.317L24.6851 55.6011L21.3219 57.9557L22.0619 58.6959ZM20.422 57.056L23.7432 54.7308L22.9091 53.9599L19.6252 56.2592L20.422 57.056ZM18.7255 55.3595L21.9675 53.0899L21.1834 52.3653L17.9765 54.6106L18.7255 55.3595ZM17.0766 53.7105L20.2416 51.4946L19.4024 50.719L16.2749 52.9088L17.0766 53.7105ZM15.3752 52.0089L18.4607 49.8488L17.482 48.9441L14.4401 51.074L15.3752 52.0089ZM13.5404 50.1741L16.5403 48.0737L15.7273 47.3225L12.7638 49.3975L13.5404 50.1741ZM11.8639 48.4978L14.7856 46.4523L13.8534 45.5907L10.9732 47.6071L11.8639 48.4978ZM10.0735 46.7072L12.9117 44.7204L12.0561 43.9296L9.25616 45.8901L10.0735 46.7072ZM8.35627 44.9902L11.1142 43.0593L10.1917 42.2063L7.53745 44.1712L8.35627 44.9902ZM6.64044 43.2743L10.0009 40.7868L9.98896 39.6023L5.85949 42.4934L6.64044 43.2743ZM4.99416 41.5696L9.97373 38.0834L9.89677 30.4694L5.41993 34.9462C3.61932 36.7466 3.47733 39.6027 4.99416 41.5696ZM11.1376 29.2283L26.816 13.5499L30.9246 19.4936L26.4307 23.5303L22.5544 18.8841L21.1044 28.3148L11.2183 37.195L11.1376 29.2283ZM42.3023 68.8256L48.0358 63.0023L48.1305 57.7956L65.7781 41.3288V41.3184L52.74 42.0322L48.9995 47.141C49.0065 45.5061 49.0125 43.8707 49.0205 42.2355L48.7849 42.2485L39.071 30.9587V68.8143L42.3023 68.8256ZM37.8129 68.8102V30.9587C34.5744 34.7219 31.3366 38.4853 28.0988 42.2487L28.0173 42.2444C28.0243 43.8769 28.0313 45.5092 28.0387 47.1414L27.9741 47.053L24.3048 42.0413L11.2601 41.3272L11.2617 41.4857L28.9078 57.7939L29.0024 63.0027L34.7103 68.7997L37.8129 68.8102ZM11.2473 40.0694L27.5506 40.9617L37.6507 29.2235L31.6451 20.5357L11.2354 38.8689L11.2473 40.0694ZM65.8016 38.9578L45.2394 20.4878L39.2328 29.2225L49.3335 40.9617L65.7909 40.061L65.8016 38.9578ZM38.4574 20.1641L32.9625 20.1653L38.4432 28.157L43.9389 20.1653L38.4574 20.1641Z" fill="white"/>
</svg>
