<svg width="45" height="45" viewBox="0 0 45 45" fill="none" xmlns="http://www.w3.org/2000/svg">
<rect width="45" height="45" fill="#207899"/>
<path d="M20.625 28.7963H20.5294C20.0575 28.7963 19.6049 28.6088 19.2712 28.2751C18.9375 27.9414 18.75 27.4888 18.75 27.0169C18.75 26.5196 18.5525 26.0427 18.2008 25.6911C17.8492 25.3394 17.3723 25.1419 16.875 25.1419C16.3777 25.1419 15.9008 25.3394 15.5492 25.6911C15.1975 26.0427 15 26.5196 15 27.0169C15 28.4834 15.5826 29.8898 16.6195 30.9268C17.6565 31.9637 19.0629 32.5463 20.5294 32.5463H20.625V34.4213C20.625 34.9185 20.8225 35.3955 21.1742 35.7471C21.5258 36.0987 22.0027 36.2963 22.5 36.2963C22.9973 36.2963 23.4742 36.0987 23.8258 35.7471C24.1775 35.3955 24.375 34.9185 24.375 34.4213V32.5463C25.8668 32.5463 27.2976 31.9536 28.3525 30.8987C29.4074 29.8439 30 28.4131 30 26.9213C30 25.4294 29.4074 23.9987 28.3525 22.9438C27.2976 21.8889 25.8668 21.2963 24.375 21.2963V17.5463H24.4162C25.4288 17.5463 26.25 18.3675 26.25 19.38C26.25 19.8773 26.4475 20.3542 26.7992 20.7058C27.1508 21.0575 27.6277 21.255 28.125 21.255C28.6223 21.255 29.0992 21.0575 29.4508 20.7058C29.8025 20.3542 30 19.8773 30 19.38C30 17.8991 29.4117 16.4789 28.3646 15.4317C27.3174 14.3846 25.8972 13.7963 24.4162 13.7963H24.375V11.9213C24.375 11.424 24.1775 10.9471 23.8258 10.5954C23.4742 10.2438 22.9973 10.0463 22.5 10.0463C22.0027 10.0463 21.5258 10.2438 21.1742 10.5954C20.8225 10.9471 20.625 11.424 20.625 11.9213V13.7963C19.1332 13.7963 17.7024 14.3889 16.6475 15.4438C15.5926 16.4987 15 17.9294 15 19.4213C15 20.9131 15.5926 22.3439 16.6475 23.3987C17.7024 24.4536 19.1332 25.0463 20.625 25.0463V28.7963ZM24.375 28.7963V25.0463C24.8723 25.0463 25.3492 25.2438 25.7008 25.5954C26.0525 25.9471 26.25 26.424 26.25 26.9213C26.25 27.4185 26.0525 27.8955 25.7008 28.2471C25.3492 28.5987 24.8723 28.7963 24.375 28.7963ZM20.625 17.5463V21.2963C20.1277 21.2963 19.6508 21.0987 19.2992 20.7471C18.9475 20.3955 18.75 19.9185 18.75 19.4213C18.75 18.924 18.9475 18.4471 19.2992 18.0954C19.6508 17.7438 20.1277 17.5463 20.625 17.5463ZM22.5 41.9213C12.1444 41.9213 3.75 33.5269 3.75 23.1713C3.75 12.8156 12.1444 4.42126 22.5 4.42126C32.8556 4.42126 41.25 12.8156 41.25 23.1713C41.25 33.5269 32.8556 41.9213 22.5 41.9213Z" fill="white"/>
</svg>
